<svg xmlns="http://www.w3.org/2000/svg" viewBox="0 0 32 32" width="32" height="32">
  <defs>
    <style>
      .blue { fill: #2563eb; }
      .green { fill: #10b981; }
      .white { fill: #ffffff; }
    </style>
  </defs>
  <circle class="white" cx="16" cy="16" r="16"/>
  <!-- Blue curved elements -->
  <path class="blue" d="M6 16c0-5.5 4.5-10 10-10 2.8 0 5.3 1.1 7.1 2.9L20 12c-1.1-1.1-2.6-1.8-4.2-1.8-3.3 0-6 2.7-6 6s2.7 6 6 6c1.6 0 3.1-0.7 4.2-1.8l3.1 3.1C21.3 24.9 18.8 26 16 26c-5.5 0-10-4.5-10-10z"/>
  <path class="blue" d="M22 8c2.2 0 4 1.8 4 4s-1.8 4-4 4-4-1.8-4-4 1.8-4 4-4z"/>
  <!-- Green curved elements -->
  <path class="green" d="M26 16c0 5.5-4.5 10-10 10-2.8 0-5.3-1.1-7.1-2.9L12 20c1.1 1.1 2.6 1.8 4.2 1.8 3.3 0 6-2.7 6-6s-2.7-6-6-6c-1.6 0-3.1 0.7-4.2 1.8L8.9 8.9C10.7 7.1 13.2 6 16 6c5.5 0 10 4.5 10 10z"/>
  <path class="green" d="M10 24c-2.2 0-4-1.8-4-4s1.8-4 4-4 4 1.8 4 4-1.8 4-4 4z"/>
</svg>
